<?xml version="1.0" standalone="no"?>
<!DOCTYPE svg PUBLIC "-//W3C//DTD SVG 20010904//EN"
 "http://www.w3.org/TR/2001/REC-SVG-20010904/DTD/svg10.dtd">
<svg version="1.0" xmlns="http://www.w3.org/2000/svg"
 width="260.000000pt" height="260.000000pt" viewBox="0 0 260.000000 260.000000"
 preserveAspectRatio="xMidYMid meet">
<metadata>
Created by potrace 1.11, written by Peter Selinger 2001-2013
</metadata>
<g transform="translate(0.000000,260.000000) scale(0.100000,-0.100000)"
fill="#000000" stroke="none">
<path d="M214 2151 c-2 -2 -4 -127 -4 -278 l0 -273 38 -1 c20 0 259 0 530 0
454 -1 494 -2 514 -18 19 -16 21 -29 23 -109 0 -50 4 -94 8 -98 3 -4 224 -6
491 -6 422 1 488 3 515 16 59 31 61 44 61 378 0 282 -1 305 -20 335 -10 17
-29 37 -42 44 -18 11 -241 13 -1066 14 -574 0 -1045 -2 -1048 -4z"/>
<path d="M1327 1228 c-7 -4 -12 -42 -12 -99 -1 -139 52 -127 -552 -127 -280
-1 -518 -1 -531 -1 l-22 -1 2 -277 3 -278 1034 0 c664 0 1045 4 1065 10 17 5
41 25 53 44 23 34 23 38 23 339 0 288 -1 306 -20 337 -11 18 -33 38 -49 45
-32 13 -974 21 -994 8z"/>
</g>
</svg>
